<svg width="35" height="32" viewBox="0 0 35 32" fill="none" xmlns="http://www.w3.org/2000/svg">
<ellipse cx="17.5" cy="20.5" rx="11.5" ry="9.5" fill="url(#paint0_linear_2751_6604)"/>
<g opacity="0.85">
<path fill-rule="evenodd" clip-rule="evenodd" d="M13.2945 1.44881C13.8008 1.23007 14.4 1.29646 14.834 1.61936C15.0248 1.7614 15.2426 1.91811 15.4814 2.08992C16.9209 3.12576 19.1234 4.71064 20.7952 6.94155L20.7952 6.94158C21.8173 8.30571 22.6273 10.0659 23.1734 11.4779C23.2432 11.6586 23.3093 11.8351 23.3716 12.0062C23.6977 11.5052 23.9695 10.8621 24.0776 10.0368C24.1517 9.47035 24.6166 9.01119 25.2304 8.8981C25.8443 8.78502 26.4685 9.04354 26.7784 9.53924C27.2124 10.2332 27.5097 10.713 27.799 11.3169C28.0828 11.9094 28.3497 12.6015 28.7618 13.7297L28.7618 13.7297C29.6519 16.1669 29.7385 17.7732 29.7385 19.2254C29.7385 25.5088 24.1608 30.3927 17.4084 30.3927C10.6981 30.3927 5.07812 25.7574 5.07812 19.4368C5.07812 18.041 5.23937 15.8712 6.40094 14.1506L6.40097 14.1506C7.19247 12.9783 7.7657 12.4181 8.46391 11.7358C8.67048 11.5339 8.888 11.3214 9.12534 11.0791L9.12537 11.0791C9.32904 10.8712 9.49179 10.708 9.6275 10.572C9.90196 10.2969 10.0658 10.1327 10.2337 9.93348C10.4529 9.67355 10.6741 9.3535 11.1123 8.60267C11.4654 7.99787 11.8122 7.00254 12.0697 5.85312C12.3233 4.72081 12.4656 3.55 12.4656 2.64273C12.4656 2.13233 12.7883 1.66756 13.2945 1.44881ZM15.1337 5.23877C15.0709 5.62163 14.9966 6.00527 14.9123 6.38147C14.6325 7.63102 14.2178 8.91174 13.674 9.84343C13.2154 10.6291 12.9039 11.1053 12.5346 11.5433C12.2903 11.8331 12.0119 12.1123 11.6854 12.4397C11.5609 12.5646 11.4293 12.6966 11.29 12.8388M15.1337 5.23877C16.2479 6.09917 17.4238 7.13017 18.399 8.43157C19.2096 9.51341 19.9204 11.0202 20.4369 12.356C20.691 13.0131 20.889 13.6049 21.0218 14.0477C21.0884 14.2698 21.1363 14.4469 21.1663 14.5712C21.1815 14.6344 21.1888 14.671 21.1919 14.6867C21.2292 15.1516 21.5338 15.5674 21.9975 15.7755C22.4931 15.998 23.0844 15.9446 23.5225 15.638C23.5518 15.6174 23.5876 15.5932 23.629 15.5652C24.0163 15.3027 24.8987 14.7049 25.6675 13.6438C25.7668 13.9053 25.8787 14.2076 26.0089 14.564C26.7722 16.6539 26.8372 17.9604 26.8372 19.2254C26.8372 24.0104 22.6014 27.7499 17.4084 27.7499C12.1733 27.7499 7.97936 24.1847 7.97936 19.4368C7.97936 18.1155 8.1604 16.5895 8.87219 15.5352C9.5031 14.6008 9.86896 14.2426 10.5097 13.6154C10.73 13.3998 10.9828 13.1524 11.2899 12.8388" fill="url(#paint1_linear_2751_6604)"/>
</g>
<defs>
<linearGradient id="paint0_linear_2751_6604" x1="17.5" y1="11" x2="17.5" y2="30" gradientUnits="userSpaceOnUse">
<stop stop-color="#FF0000" stop-opacity="0.37"/>
<stop offset="1" stop-color="#FFA310"/>
</linearGradient>
<linearGradient id="paint1_linear_2751_6604" x1="17.4083" y1="1.32129" x2="17.4083" y2="30.3927" gradientUnits="userSpaceOnUse">
<stop stop-color="#FF0000"/>
<stop offset="1" stop-color="#FFA310"/>
</linearGradient>
</defs>
</svg>
