<svg width="63" height="58" viewBox="0 0 63 58" fill="none" xmlns="http://www.w3.org/2000/svg">
<path fill-rule="evenodd" clip-rule="evenodd" d="M29.5599 5.31481C30.5045 4.61511 31.8467 4.61511 32.7913 5.31481L52.1891 19.6836C52.8026 20.138 53.1598 20.8261 53.1598 21.5536V50.2911C53.1598 51.6137 52.0018 52.6859 50.5734 52.6859H11.7778C10.3494 52.6859 9.19141 51.6137 9.19141 50.2911V21.5536C9.19141 20.8261 9.54856 20.138 10.1621 19.6836L29.5599 5.31481ZM14.3642 47.8963H22.1233V34.7246C22.1233 33.402 23.2812 32.3298 24.7097 32.3298H37.6415C39.0699 32.3298 40.2279 33.402 40.2279 34.7246V47.8963H47.987V22.7046L31.1756 10.2517L14.3642 22.7046V47.8963ZM27.296 37.1194V47.8959H35.0552V37.1194H27.296Z" fill="#680CEA"/>
</svg>
