<svg width="40" height="52" viewBox="0 0 40 52" fill="none" xmlns="http://www.w3.org/2000/svg">
<path d="M0.708984 21.815V30.4363H5.30698V22.3898L33.7424 22.1188V45.9545H5.30698V33.31H0.708984V43.6555V46.5293L1.28373 47.6788L2.43323 48.8283L4.15748 49.9778L5.45589 50.5525H31.1707H34.6192L36.3435 49.9778L37.493 48.8283L38.0677 47.6788L38.6425 45.9545V23.5393V21.2403L38.0677 20.0908L37.493 19.516L36.3435 18.3665L35.194 17.7918H31.7455V13.7685V11.4695V10.32L31.1707 9.17052L30.596 8.02102L30.0212 6.87152L29.4465 5.72202L28.297 4.57252L26.5727 3.42302L24.8485 2.27352L23.1242 1.69877L21.4 1.12402H17.9515L16.2272 1.69877L14.503 2.27352L13.3535 2.84827L11.6292 3.99777L9.90498 5.72202L8.75548 7.44627L8.18073 8.59577L7.60598 10.32V11.4695V13.1938H12.7787V12.619V11.4695L13.3535 10.32L14.503 8.59577L15.6525 7.44627L16.802 6.87152L17.9515 6.29677H19.101H21.4L23.1242 6.87152L23.699 7.44627L24.2737 8.02102L24.8485 8.59577L25.4232 9.17052L25.998 10.32L26.5727 11.4695V12.0443V13.7685V17.7918H9.90498H5.30698H4.15748L3.00798 18.3665L1.85848 19.516L1.28373 20.6655L0.708984 21.815Z" fill="#680CEA"/>
<path d="M1.28373 29.8615H4.73223M0.708984 30.4363V21.815L1.28373 20.6655L1.85848 19.516L3.00798 18.3665L4.15748 17.7918H5.30698H9.90498H26.5727V13.7685V12.0443V11.4695L25.998 10.32L25.4232 9.17052L24.8485 8.59577L24.2737 8.02102L23.699 7.44627L23.1242 6.87152L21.4 6.29677H19.101H17.9515L16.802 6.87152L15.6525 7.44627L14.503 8.59577L13.3535 10.32L12.7787 11.4695V12.619V13.1938H7.60598V11.4695V10.32L8.18073 8.59577L8.75548 7.44627L9.90498 5.72202L11.6292 3.99777L13.3535 2.84827L14.503 2.27352L16.2272 1.69877L17.9515 1.12402H21.4L23.1242 1.69877L24.8485 2.27352L26.5727 3.42302L28.297 4.57252L29.4465 5.72202L30.0212 6.87152L30.596 8.02102L31.1707 9.17052L31.7455 10.32V11.4695V13.7685V17.7918H35.194L36.3435 18.3665L37.493 19.516L38.0677 20.0908L38.6425 21.2403V23.5393V45.9545L38.0677 47.6788L37.493 48.8283L36.3435 49.9778L34.6192 50.5525H31.1707H5.45589L4.15748 49.9778L2.43323 48.8283L1.28373 47.6788L0.708984 46.5293V43.6555V33.31H5.30698V45.9545H33.7424V22.1188L5.30698 22.3898V30.4363H0.708984Z" stroke="white" stroke-width="1.1495"/>
<circle cx="19.6747" cy="33.8847" r="5.17275" fill="#680CEA"/>
</svg>
